<svg xmlns="http://www.w3.org/2000/svg" width="75" height="74" viewBox="0 0 75 74" fill="none">
  <path d="M39.8438 24.6665C39.8438 23.3893 38.7944 22.354 37.5 22.354C36.2056 22.354 35.1562 23.3893 35.1562 24.6665V34.6873H25C23.7056 34.6873 22.6562 35.7227 22.6562 36.9998C22.6562 38.277 23.7056 39.3123 25 39.3123H35.1562V49.3332C35.1562 50.6103 36.2056 51.6457 37.5 51.6457C38.7944 51.6457 39.8438 50.6103 39.8438 49.3332V39.3123H50C51.2944 39.3123 52.3438 38.277 52.3438 36.9998C52.3438 35.7227 51.2944 34.6873 50 34.6873H39.8438V24.6665Z" fill="#363538"/>
  <path fill-rule="evenodd" clip-rule="evenodd" d="M8.76202 58.5832C6.25 54.2902 6.25 48.5268 6.25 36.9998C6.25 25.4729 6.25 19.7094 8.76202 15.4165C10.4077 12.6041 12.7746 10.2687 15.625 8.64503C19.976 6.1665 25.8173 6.1665 37.5 6.1665C49.1827 6.1665 55.024 6.1665 59.375 8.64503C62.2254 10.2687 64.5923 12.6041 66.238 15.4165C68.75 19.7094 68.75 25.4729 68.75 36.9998C68.75 48.5268 68.75 54.2902 66.238 58.5832C64.5923 61.3955 62.2254 63.7309 59.375 65.3546C55.024 67.8332 49.1827 67.8332 37.5 67.8332C25.8173 67.8332 19.976 67.8332 15.625 65.3546C12.7746 63.7309 10.4077 61.3955 8.76202 58.5832ZM63.7676 23.9129C63.4831 20.8153 62.9539 19.0542 62.1785 17.729C60.9442 15.6197 59.169 13.8682 57.0312 12.6504C55.6881 11.8853 53.9032 11.3632 50.7638 11.0824C47.5599 10.7959 43.4276 10.7915 37.5 10.7915C31.5724 10.7915 27.4401 10.7959 24.2362 11.0824C21.0968 11.3632 19.3119 11.8853 17.9688 12.6504C15.831 13.8682 14.0558 15.6197 12.8215 17.729C12.0461 19.0542 11.5169 20.8153 11.2324 23.9129C10.942 27.074 10.9375 31.1513 10.9375 36.9998C10.9375 42.8484 10.942 46.9256 11.2324 50.0868C11.5169 53.1843 12.0461 54.9455 12.8215 56.2707C14.0558 58.3799 15.831 60.1315 17.9687 61.3493C19.3119 62.1144 21.0968 62.6365 24.2362 62.9172C27.4401 63.2037 31.5724 63.2082 37.5 63.2082C43.4276 63.2082 47.5599 63.2037 50.7638 62.9172C53.9032 62.6365 55.6881 62.1144 57.0313 61.3493C59.169 60.1315 60.9442 58.3799 62.1785 56.2707C62.9539 54.9454 63.4831 53.1844 63.7676 50.0868C64.058 46.9256 64.0625 42.8484 64.0625 36.9998C64.0625 31.1513 64.058 27.074 63.7676 23.9129Z" fill="#363538"/>
</svg>