<svg xmlns="http://www.w3.org/2000/svg" width="53" height="57" viewBox="0 0 53 57" fill="none">
  <path fill-rule="evenodd" clip-rule="evenodd" d="M35.1569 12.7514C35.9722 11.5106 36.4375 10.0771 36.4375 8.55C36.4375 3.82797 31.9883 0 26.5 0C21.0117 0 16.5625 3.82797 16.5625 8.55C16.5625 10.0771 17.0278 11.5106 17.8431 12.7514C11.2383 15.2446 6.62497 20.9206 6.62497 27.5236C6.62497 28.1603 6.40594 28.7827 5.99549 29.3124L4.41665 31.35C1.53677 35.0667 0 39.4336 0 43.9005V45.6196C0 47.1828 1.47284 48.45 3.28968 48.45H49.7103C51.5272 48.45 53 47.1828 53 45.6196V43.9006C53 39.4337 51.4632 35.0667 48.5833 31.35L47.0045 29.3124C46.594 28.7827 46.375 28.1603 46.375 27.5236C46.375 20.9206 41.7617 15.2446 35.1569 12.7514ZM29.8125 8.55C29.8125 10.124 28.3294 11.4 26.5 11.4C24.6706 11.4 23.1875 10.124 23.1875 8.55C23.1875 6.97599 24.6706 5.7 26.5 5.7C28.3294 5.7 29.8125 6.97599 29.8125 8.55ZM27.6348 17.1H25.3652C18.6741 17.1 13.25 21.7668 13.25 27.5236C13.25 28.8526 12.9051 30.1591 12.2482 31.35H40.7517C40.0948 30.1591 39.75 28.8526 39.75 27.5236C39.75 21.7668 34.3258 17.1 27.6348 17.1ZM44.6917 37.05H8.30832C7.3827 38.8493 6.82663 40.7781 6.67049 42.75H46.3295C46.1734 40.7781 45.6173 38.8493 44.6917 37.05Z" fill="#1B2132"/>
  <path d="M33.125 51.3C33.125 52.0485 32.9536 52.7897 32.6207 53.4813C32.2878 54.1729 31.7998 54.8012 31.1846 55.3305C30.5694 55.8598 29.8391 56.2797 29.0353 56.5661C28.2315 56.8526 27.37 57 26.5 57C25.63 57 24.7685 56.8526 23.9647 56.5661C23.1609 56.2797 22.4306 55.8598 21.8154 55.3305C21.2002 54.8012 20.7122 54.1729 20.3793 53.4813C20.0464 52.7897 19.875 52.0485 19.875 51.3H33.125Z" fill="#1B2132"/>
</svg>