<svg xmlns="http://www.w3.org/2000/svg" width="75" height="74" viewBox="0 0 75 74" fill="none">
  <path d="M11.4514 26.728L29.6914 12.3305C34.2567 8.72706 40.7436 8.72706 45.3088 12.3305L63.5488 26.728C66.8 29.2942 68.5427 33.2892 68.197 37.3829L66.1027 62.179C65.8328 65.3751 63.1248 67.8336 59.8743 67.8336H47.734C43.468 67.8336 40.4557 63.7099 41.8048 59.7168L42.595 57.3776C43.932 53.4203 40.9467 49.3336 36.7189 49.3336C32.4911 49.3336 29.5058 53.4203 30.8427 57.3776L31.633 59.7168C32.982 63.7099 29.9697 67.8336 25.7037 67.8336H15.1259C11.8754 67.8336 9.16748 65.3751 8.89754 62.179L6.80328 37.3829C6.45752 33.2892 8.20027 29.2942 11.4514 26.728Z" fill="#363538"/>
</svg>