<svg xmlns="http://www.w3.org/2000/svg" width="75" height="74" viewBox="0 0 75 74" fill="none">
  <path d="M28.125 9.25H21.875C14.9714 9.25 9.375 14.7718 9.375 21.5833V52.4167C9.375 59.2282 14.9714 64.75 21.875 64.75H28.125C32.2893 64.75 35.8195 62.0711 37.0418 58.3646C37.6422 56.5438 37.0482 54.6084 36.1803 52.8959L30.9201 42.5156C29.1605 39.0435 29.1605 34.9565 30.9201 31.4844L36.1803 21.1041C37.0482 19.3916 37.6422 17.4562 37.0418 15.6354C35.8195 11.9289 32.2893 9.25 28.125 9.25Z" fill="#363538"/>
  <path d="M42.2823 29.1981C43.1976 30.1012 43.1976 31.5654 42.2823 32.4685L40.0333 34.6875H62.5C63.7944 34.6875 64.8438 35.7228 64.8438 37C64.8438 38.2772 63.7944 39.3125 62.5 39.3125H40.0333L42.2823 41.5315C43.1976 42.4346 43.1976 43.8988 42.2823 44.8018C41.367 45.7049 39.883 45.7049 38.9677 44.8018L32.7177 38.6352C32.493 38.4135 32.3235 38.1579 32.2091 37.8852C32.0971 37.6187 32.0342 37.3271 32.0313 37.0213L32.0312 37L32.0313 36.9787C32.0368 36.394 32.2656 35.8109 32.7177 35.3648L38.9677 29.1981C39.883 28.2951 41.367 28.2951 42.2823 29.1981Z" fill="#363538"/>
</svg>