<svg xmlns="http://www.w3.org/2000/svg" width="57" height="58" viewBox="0 0 57 58" fill="none">
  <path fill-rule="evenodd" clip-rule="evenodd" d="M28.5 35.4444C32.435 35.4444 35.625 32.5591 35.625 28.9999C35.625 25.4408 32.435 22.5555 28.5 22.5555C24.565 22.5555 21.375 25.4408 21.375 28.9999C21.375 32.5591 24.565 35.4444 28.5 35.4444ZM28.5 41.8888C36.3701 41.8888 42.75 36.1183 42.75 28.9999C42.75 21.8816 36.3701 16.1111 28.5 16.1111C20.6299 16.1111 14.25 21.8816 14.25 28.9999C14.25 36.1183 20.6299 41.8888 28.5 41.8888Z" fill="#1B2132"/>
  <path fill-rule="evenodd" clip-rule="evenodd" d="M26.7325 0.424551C27.8277 -0.141516 29.1723 -0.141517 30.2675 0.424549L55.205 13.3134C56.315 13.8871 57 14.9548 57 16.1111V41.8889C57 43.0452 56.315 44.1129 55.205 44.6866L30.2675 57.5755C29.1723 58.1415 27.8277 58.1415 26.7325 57.5755L1.79501 44.6866C0.685019 44.1129 0 43.0452 0 41.8889V16.1111C0 14.9548 0.685017 13.8871 1.795 13.3134L26.7325 0.424551ZM8.92 17.0533C7.81002 17.627 7.125 18.6947 7.125 19.851V38.149C7.125 39.3054 7.81002 40.373 8.92001 40.9467L26.7325 50.1531C27.8277 50.7191 29.1723 50.7191 30.2675 50.1531L48.08 40.9467C49.19 40.373 49.875 39.3054 49.875 38.149V19.851C49.875 18.6947 49.19 17.627 48.08 17.0533L30.2675 7.84695C29.1723 7.28088 27.8277 7.28088 26.7325 7.84695L8.92 17.0533Z" fill="#1B2132"/>
</svg>