<svg xmlns="http://www.w3.org/2000/svg" width="38" height="50" viewBox="0 0 38 50" fill="none">
  <path fill-rule="evenodd" clip-rule="evenodd" d="M31.25 6.16667H6.25L6.25 43.1667H31.25V6.16667ZM6.25 0C2.79822 0 0 2.76091 0 6.16667V43.1667C0 46.5724 2.79822 49.3333 6.25 49.3333H31.25C34.7018 49.3333 37.5 46.5724 37.5 43.1667V6.16667C37.5 2.76091 34.7018 0 31.25 0H6.25Z" fill="#1B2132"/>
  <path d="M12.5 12.3333C12.5 10.6305 13.8991 9.25 15.625 9.25H21.875C23.6009 9.25 25 10.6305 25 12.3333C25 14.0362 23.6009 15.4167 21.875 15.4167H15.625C13.8991 15.4167 12.5 14.0362 12.5 12.3333Z" fill="#1B2132"/>
  <path d="M15.625 37C15.625 35.2971 17.0241 33.9167 18.75 33.9167C20.4759 33.9167 21.875 35.2971 21.875 37C21.875 38.7029 20.4759 40.0833 18.75 40.0833C17.0241 40.0833 15.625 38.7029 15.625 37Z" fill="#1B2132"/>
</svg>